PathFileType	4	(X/Y/Z)	/home/abdul/Desktop/myosuite/custom_workspace/IK/output/S13_12_3.trc
DataRate	CameraRate	NumFrames	NumMarkers	Units	OrigDataRate	OrigDataStartFrame	OrigNumFrames
200.0	200.0	57	3	mm	200.0	1	1525
Frame#	Time	V_Shoulder			V_Elbow			V_Wrist		
		X1	Y1	Z1	X2	Y2	Z2	X3	Y3	Z3

1	0.0	-94.05408670780774	612.0776175567526	325.9439292817774	-240.2787889778028	523.5840572192233	9.233168088543788	-264.65861665615944	255.41244898153363	38.5858357511321
2	0.005	-94.0505385726716	612.0764978623598	325.9440241645795	-240.27253440543552	523.5819045965159	9.230081629487403	-264.6576346580515	255.411392450506	38.583550978072175
3	0.01	-94.04696655241158	612.0753805297619	325.94413270161544	-240.2662431892823	523.5797232599671	9.227010884444729	-264.65682837382	255.4103170232567	38.581178356433256
4	0.015	-94.04337620200407	612.0742677503573	325.94425553851784	-240.25992838250022	523.5775190440133	9.223961897300576	-264.65621031068736	255.4092271400874	38.57872296082636
5	0.02	-94.0397731917886	612.0731617425287	325.9443933120112	-240.25360342764787	523.5752981093283	9.220940689150755	-264.65579285034244	255.4081275550987	38.57619044071882
6	0.025	-94.03616329254555	612.0720647460272	325.94454664732945	-240.24728212124717	523.5730669336954	9.217953232956123	-264.6555881927172	255.40702333283613	38.573587025485615
7	0.03	-94.03255236018803	612.0709790163243	325.9447161555532	-240.2409785759642	523.5708323012466	9.215005427690205	-264.6556082976875	255.40591984347293	38.57091952734696
8	0.035	-94.02894632012645	612.0699068189612	325.9449024308706	-240.23470718046346	523.5686012900285	9.212103072070597	-264.6558648248296	255.4048227564764	38.56819534207533
9	0.04	-94.02535115136425	612.0688504239173	325.94510604777196	-240.22848255699517	523.5663812578691	9.209251837967738	-264.6563690713817	255.40373803270734	38.565422447358905
10	0.045	-94.02177287038332	612.0678121000291	325.9453275581829	-240.22231951678515	523.564179826519	9.20645724358763	-264.6571319085715	255.40267191490742	38.56260939871231
11	0.05	-94.01821751487638	612.066794109479	325.9455674885459	-240.2162330133045	523.5620048640491	9.203724626528032	-264.6581637164887	255.40163091653204	38.55976532283006
12	0.055	-94.0146911273837	612.0657987023809	325.94582633685815	-240.21023809350504	523.5598644654903	9.201059116810129	-264.659474317694	255.40062180889305	38.55689990828379
13	0.06	-94.01119973888983	612.0648281114817	325.9461045696739	-240.2043498471146	523.5577669317087	9.198465609990183	-264.66107290977277	255.399651606578	38.55402339347002
14	0.065	-94.00774935243527	612.0638845470004	325.9464026190813	-240.19858335409504	523.555720746517	9.195948740457656	-264.6629679970545	255.39872755112123	38.551146551722326
15	0.07	-94.00434592679625	612.0629701916228	325.9467208796643	-240.19295363037475	523.5537345520273	9.193512855028153	-264.665167321736	255.39785709290425	38.54828067350853
16	0.075	-94.00099536028453	612.0620871956671	325.947059705457	-240.1874755719769	523.55181712226	9.19116198694113	-264.6676777946596	255.39704787127272	38.54543754564223
17	0.08	-93.99770347471713	612.0612376724381	325.9474194069036	-240.18216389767238	523.5499773350289	9.188899830373494	-264.6705054260111	255.39630769286074	38.54262942744612
18	0.085	-93.99447599960483	612.0604236937794	325.94780024783296	-240.177033090297	523.5482241421336	9.18672971558127	-264.6736552562183	255.39564450812165	38.53986902381422
19	0.09	-93.99131855660535	612.0596472858352	325.9482024424595	-240.17209733688156	523.5465665378927	9.184654584782168	-264.67713128734005	255.39506638607207	38.53716945512999
20	0.095	-93.98823664428646	612.0589104250331	325.94862615242107	-240.16737046775188	523.5450135260678	9.182676968892157	-264.68093641525314	255.39458148726231	38.5345442240081
21	0.1	-93.98523562324074	612.0582150342897	325.94907148386505	-240.16286589476545	523.5435740852287	9.180798965229261	-264.6850723629524	255.39419803499516	38.53200717883877
22	0.105	-93.98232070159362	612.0575629794478	325.9495384845956	-240.1585965488622	523.5422571326242	9.179022216297328	-264.6895396152932	255.39392428482267	38.52957247412562
23	0.11	-93.97949692094232	612.0569560659459	325.9500271412919	-240.15457481711357	523.5410714866305	9.17734788976195	-264.6943373555154	255.39376849235967	38.52725452762046
24	0.115	-93.97676914276288	612.0563960357194	325.9505373768116	-240.15081247946557	523.540025827857	9.17577665972953	-264.6994634038971	255.39373887946093	38.525067974271394
25	0.12	-93.97414203531939	612.0558845643346	325.9510690475895	-240.1473206453793	523.5391286589991	9.17430868943915	-264.7049141588959	255.39384359881785	38.523027617014684
26	0.125	-93.97162006110828	612.0554232583478	325.95162194114465	-240.1441096905821	523.5383882635388	9.17294361547492	-264.7106845411428	255.3940906970408	38.52114837445433
27	0.13	-93.96920746486775	612.0550136528886	325.9521957737091	-240.1411891941499	523.5378126634002	9.17168053360441	-264.71676794066053	255.39448807630083	38.5194452254888
28	0.135	-93.96690826218132	612.0546572094562	325.9527901879881	-240.1385678761516	523.5374095756767	9.170517986345967	-264.72315616768356	255.39504345461575	38.517933150958896
29	0.14	-93.96472622870154	612.0543553139207	325.9534047510679	-240.13625353609262	523.5371863685598	9.169453952364767	-264.7298394074617	255.39576432487468	38.51662707240659
30	0.145	-93.96266489001886	612.05410927472	325.9540389524793	-240.13425299240444	523.5371500166025	9.168485837793867	-264.73680617943194	255.39665791270488	38.51554178805087
31	0.15	-93.9607275121984	612.0539203212378	325.9546922024327	-240.13257202323223	523.5373070554651	9.167610469572663	-264.7440433011425	255.3977311332944	38.51469190610257
32	0.155	-93.95891709300521	612.0537896023511	325.9553638302357	-240.13121530878112	523.5376635362959	9.166824090890792	-264.7515358573172	255.39899054729472	38.514091775557276
33	0.16	-93.95723635383764	612.0537181851288	325.9560530829047	-240.13018637548743	523.538224979911	9.166122358820665	-264.7592671744426	255.40044231593697	38.51375541462202
34	0.165	-93.9556877323858	612.0537070536683	325.9567591239839	-240.12948754228648	523.5389963309431	9.165500344216692	-264.76721880125854	255.4020921555054	38.51369643694883
35	0.17	-93.95427337603128	612.05375710805	325.9574810325819	-240.12911986925562	523.5399819121411	9.164952533953464	-264.77537049552825	255.40394529132107	38.5139279758655
36	0.175	-93.95299513600207	612.0538691633923	325.95821780263833	-240.1290831089123	523.541185379006	9.164472835569189	-264.78370021745616	255.4060064113998	38.514462606811435
37	0.18	-93.95185456229507	612.0540439489868	325.95896834243234	-240.12937566045366	523.5426096749595	9.16405458437401	-264.7921841301131	255.40827961995626	38.515312268203594
38	0.185	-93.95085289937805	612.0542821074938	325.95973147434256	-240.129994527225	523.544256987246	9.163690553076005	-264.80079660721873	255.4107683909365	38.51648818097563
39	0.19	-93.94999108267984	612.0545841941781	325.96050593487104	-240.13093527770747	523.5461287037781	9.16337296397015	-264.80951024861713	255.41347552176995	38.51800076704996
40	0.195	-93.94926973587759	612.0549506761628	325.9612903749402	-240.13219201031507	523.5482253711393	9.163093503727907	-264.8182959037696	255.41640308754023	38.51985956702041
41	0.2	-93.94868916898751	612.0553819316792	325.9620833604735	-240.13375732229173	523.5505466539662	9.162843340816806	-264.82712270356876	255.41955239578306	38.52207315733955
42	0.205	-93.94824937726501	612.0558782492943	325.9628833732697	-240.13562228299827	523.5530912959327	9.162613145570928	-264.83595810076184	255.42292394212694	38.52464906732183
43	0.21	-93.94795004091834	612.0564398270909	325.9636888121783	-240.13777641187556	523.5558570825699	9.16239311292425	-264.8447679192495	255.42651736699912	38.52759369628979
44	0.215	-93.94779052563854	612.0570667717808	325.9644979945869	-240.14020766136778	523.5588408061512	9.162172987809537	-264.8535164125045	255.43033141362758	38.53091223120647
45	0.22	-93.9477698839478	612.0577590977326	325.965309158227	-240.14290240508353	523.5620382328815	9.161942093216005	-264.8621663313284	255.43436388757473	38.53460856515245
46	0.225	-93.94788685736654	612.0585167258897	325.9661204633058	-240.14584543146742	523.5654440726266	9.161689360888989	-264.87067900113857	255.43861161804443	38.5386852170206
47	0.23	-93.94813987939897	612.0593394825632	325.9669299949714	-240.14901994324686	523.5690519514245	9.161403364644837	-264.87901440894757	255.44307042120917	38.54314325281548
48	0.235	-93.948527079335	612.0602270980792	325.96773576611713	-240.15240756290854	523.5728543870171	9.161072356263826	-264.88713130016737	255.44773506580805	38.547982208957514
49	0.24	-93.94904628686596	612.0611792052641	325.96853572052964	-240.15598834445103	523.5768427676403	9.160684303913367	-264.8949872853352	255.4525992412693	38.55320001800417
50	0.245	-93.94969503750987	612.0621953377516	325.96932773638656	-240.15974079164505	523.5810073343139	9.160226933042969	-264.90253895682486	255.457655528614	38.55879293721176
51	0.25	-93.95047057884112	612.0632749280976	325.9701096301063	-240.16364188302157	523.5853371668604	9.159687769681625	-264.90974201556753	255.46289537439895	38.5647554803713
52	0.255	-93.95136987751847	612.0644173056879	325.9708791605535	-240.1676671037921	523.5898201738912	9.159054186057347	-264.9165514077685	255.46830906795668	38.571080353361
53	0.26	-93.95238962710384	612.0656216944294	325.9716340336019	-240.17179048488802	523.5944430869797	9.15831344844735	-264.92292147156405	255.47388572219162	38.57775839386542
54	0.265	-93.95352625666278	612.0668872102133	325.97237190705573	-240.17598464928926	523.5991914592466	9.157452767156585	-264.9288060935196	255.4796132581881	38.584778515717716
55	0.27	-93.95477594013751	612.0682128581426	325.97309039592994	-240.18022086579123	523.6040496685707	9.156459348511154	-264.93415887482564	255.48547839388488	38.59212765832594
56	0.275	-93.95613460648055	612.0695975295195	325.9737870780884	-240.18446911033868	523.6090009256295	9.155320448742229	-264.93893330700143	255.49146663706588	38.59979074164784
57	0.28	-93.9575979505372	612.0710399985859	325.9744595002383	-240.18869813503147	523.6140272869663	9.154023429625259	-264.9430829568672	255.4975622829133	38.60775062717964
